<svg xmlns="http://www.w3.org/2000/svg" xmlns:xlink="http://www.w3.org/1999/xlink" fill="none" version="1.1" width="567" height="324" viewBox="0 0 567 324"><g style="opacity:0.20000000298023224;"><path d="M404.44,0.210557Q400.475,0.01072200000000001,396.414,0.0005460000000000464L396.409,2.00054Q400.422,2.0106,404.339,2.2080200000000003L404.44,0.210557ZM386.76,0.23764200000000002Q383.544,0.401373,380.389,0.707093L380.582,2.6977700000000002Q383.692,2.3964600000000003,386.862,2.23505L388.499,2.1589L388.407,0.16105599999999998L386.76,0.23764200000000002ZM420.398,1.845386Q416.475,1.22803,412.44,0.8170040000000001L412.238,2.80671Q416.218,3.2122,420.087,3.82106L420.398,1.845386ZM372.415,1.721968Q368.408,2.35693,364.514,3.23163L364.952,5.18301Q368.784,4.322290000000001,372.728,3.69732L372.415,1.721968ZM436.079,5.26685Q432.25,4.18288,428.288,3.32087L427.862,5.27516Q431.764,6.12407,435.535,7.19125L436.079,5.26685ZM356.737,5.2515Q352.864,6.39747,349.125,7.79232L349.824,9.66621Q353.498,8.29557,357.304,7.16929L356.737,5.2515ZM451.219,10.64492Q447.555,9.05724,443.737,7.70324L443.068,9.58822Q446.822,10.91934,450.424,12.48L451.219,10.64492ZM341.683,10.8751Q338.012,12.5534,334.497,14.4837L335.46,16.2367Q338.911,14.3418,342.515,12.694L341.683,10.8751ZM465.475,18.0693Q462.066,15.9658,458.48,14.1001L457.557,15.8743Q461.078,17.7062,464.425,19.7713L465.475,18.0693ZM327.597,18.6152Q324.218,20.8136,321.021,23.2556L322.235,24.845Q325.372,22.449,328.688,20.2915L327.597,18.6152ZM478.486,27.5134Q475.422,24.9132,472.157,22.5448L470.983,24.1636Q474.186,26.4874,477.192,29.0385L478.486,27.5134ZM314.819,28.3758Q311.814,31.0538,309.017,33.9542L310.457,35.3424Q313.201,32.496700000000004,316.149,29.8689L314.819,28.3758ZM489.919,38.8218Q487.279,35.7785,484.42,32.9501L483.013,34.372Q485.818,37.1467,488.408,40.1323L489.919,38.8218ZM303.656,39.9528Q301.09,43.0513,298.763,46.3368L300.395,47.4929Q302.678,44.2691,305.196,41.2285L303.656,39.9528ZM499.509,51.7286Q497.353,48.3198,494.957,45.0953L493.352,46.2879Q495.702,49.4521,497.819,52.798L499.509,51.7286ZM294.36,53.0768Q292.284,56.534,290.484,60.1241L292.272,61.0206Q294.038,57.4987,296.075,54.1064L294.36,53.0768ZM507.086,65.907Q505.447,62.2186,503.556,58.6797L501.792,59.6219Q503.648,63.097,505.258,66.7193L507.086,65.907ZM287.156,67.4517Q285.623,71.2059,284.409,75.0235L286.315,75.6296Q287.505,71.8882,289.007,68.2075L287.156,67.4517ZM512.556,81.0193Q511.453,77.1404,510.088,73.3665L508.207,74.0469Q509.548,77.7546,510.633,81.5664L512.556,81.0193ZM282.287,82.7932Q281.378,86.7759,280.841,90.7196L282.823,90.9895Q283.347,87.1346,284.237,83.2384L282.287,82.7932ZM515.873,96.743Q515.316,92.7574,514.486,88.8233L512.529,89.236Q513.345,93.104,513.893,97.0201L515.873,96.743ZM280.228,106.232L280.267,106.822L282.263,106.69L282.224,106.1Q281.996,102.545,282.136,98.8296L280.137,98.7544Q279.994,102.571,280.228,106.232ZM517,112.773Q516.996,108.756,516.713,104.738L514.718,104.878Q514.996,108.828,515,112.775L517,112.773ZM281.063,114.818Q281.583,118.799,282.35,122.746L284.313,122.365Q283.558,118.479,283.046,114.558L281.063,114.818ZM0.24406099999999997,120.792Q1.161139,121.851,2.9139999999999997,123.766L4.3894,122.416Q2.65508,120.521,1.7559390000000001,119.482L0.24406099999999997,120.792ZM515.886,128.80700000000002Q516.448,124.841,516.727,120.808L514.732,120.67Q514.458,124.631,513.906,128.526L515.886,128.80700000000002ZM8.39678,129.606Q11.0956,132.416,13.9755,135.304L15.3917,133.892Q12.5256,131.018,9.83938,128.22L8.39678,129.606ZM284.122,130.579Q285.123,134.451,286.366,138.29L288.268,137.674Q287.044,133.893,286.058,130.078L284.122,130.579ZM512.454,144.515Q513.603,140.683,514.466,136.725L512.511,136.299Q511.665,140.182,510.539,143.941L512.454,144.515ZM19.6682,140.916Q22.5212,143.681,25.4516,146.43L26.82,144.972Q23.9013,142.233,21.0602,139.48L19.6682,140.916ZM289.062,145.853Q290.508,149.567,292.185,153.247L294.005,152.418Q292.351,148.788,290.925,145.127L289.062,145.853ZM31.3238,151.853Q34.2744,154.534,37.2735,157.175L38.5952,155.674Q35.6081,153.044,32.6689,150.373L31.3238,151.853ZM506.339,159.423Q508.24,155.82,509.761,152.12L507.911,151.36Q506.426,154.971,504.57,158.489L506.339,159.423ZM295.709,160.456Q297.549,163.98,299.603,167.468L301.327,166.453Q299.299,163.009,297.482,159.53L295.709,160.456ZM43.3096,162.407Q46.3576,165.007,49.4295,167.543L50.703,166.001Q47.6425,163.474,44.6075,160.885L43.3096,162.407ZM497.601,172.941Q500.1,169.705,502.26,166.372L500.581,165.285Q498.466,168.548,496.018,171.718L497.601,172.941ZM55.6331,172.583Q58.7659,175.085,61.9142,177.516L63.1365,175.933Q60.0013,173.513,56.8814,171.02L55.6331,172.583ZM303.838,174.277Q306.013,177.594,308.385,180.879L310.006,179.708Q307.661,176.46,305.511,173.18L303.838,174.277ZM486.862,184.902Q489.797,182.057,492.444,179.117L490.957,177.779Q488.357,180.668,485.47,183.465L486.862,184.902ZM68.2755,182.343Q71.4942,184.742,74.7232,187.062L75.8903,185.438Q72.6759,183.129,69.4707,180.739L68.2755,182.343ZM313.215,187.274Q315.67,190.386,318.303,193.464L319.823,192.164Q317.215,189.115,314.786,186.035L313.215,187.274ZM474.684,195.35Q477.926,192.873,480.924,190.306L479.623,188.787Q476.668,191.318,473.47,193.761L474.684,195.35ZM81.2372,191.655Q84.5446,193.942,87.8565,196.142L88.9631,194.476Q85.6679,192.287,82.3748,190.01L81.2372,191.655ZM323.623,199.453Q326.307,202.365,329.153,205.246L330.576,203.84Q327.754,200.984,325.094,198.097L323.623,199.453ZM461.474,204.444Q464.935,202.292,468.188,200.056L467.055,198.408Q463.84,200.617,460.417,202.746L461.474,204.444ZM94.565,200.505Q97.9604,202.666,101.354,204.731L102.393,203.022Q99.0175,200.968,95.639,198.818L94.565,200.505ZM447.539,212.338Q451.147,210.474,454.582,208.531L453.597,206.79Q450.196,208.715,446.621,210.561L447.539,212.338ZM108.218,208.81Q111.7,210.829,115.176,212.745L116.141,210.993Q112.685,209.089,109.221,207.08L108.218,208.81ZM334.87,210.845Q337.74,213.568,340.758,216.262L342.09,214.77Q339.095,212.096,336.246,209.394L334.87,210.845ZM433.069,219.187Q436.785,217.575,440.355,215.887L439.5,214.079Q435.96,215.753,432.273,217.352L433.069,219.187ZM122.226,216.525Q125.802,218.39,129.367,220.14L130.248,218.345Q126.706,216.605,123.151,214.751L122.226,216.525ZM346.802,221.503Q349.827,224.054,352.986,226.576L354.234,225.013Q351.096,222.507,348.091,219.974L346.802,221.503ZM418.207,225.116Q422.005,223.724,425.678,222.26L424.938,220.403Q421.291,221.856,417.519,223.239L418.207,225.116ZM136.585,223.574Q140.25,225.26,143.898,226.823L144.686,224.985Q141.062,223.432,137.421,221.757L136.585,223.574ZM403.052,230.227Q406.906,229.034,410.66,227.769L410.022,225.874Q406.291,227.13,402.46,228.317L403.052,230.227ZM151.294,229.872Q155.045,231.358,158.775,232.71L159.457,230.83Q155.754,229.487,152.03,228.013L151.294,229.872ZM359.298,231.487Q362.452,233.879,365.726,236.243L366.896,234.621Q363.642,232.271,360.506,229.893L359.298,231.487ZM387.688,234.598Q391.579,233.585,395.385,232.503L394.838,230.579Q391.052,231.655,387.184,232.663L387.688,234.598ZM166.338,235.324Q170.172,236.583,173.982,237.699L174.544,235.78Q170.765,234.673,166.962,233.424L166.338,235.324ZM372.139,238.303Q376.06,237.453,379.913,236.536L379.45,234.59Q375.617,235.502,371.715,236.348L372.139,238.303ZM181.7,239.822Q185.609,240.826,189.49,241.677L189.918,239.724Q186.072,238.88,182.198,237.885L181.7,239.822ZM356.442,241.391Q360.411,240.687,364.313,239.92L363.927,237.958Q360.042,238.721,356.093,239.422L356.442,241.391ZM372.259,240.85Q375.519,243.097,378.889,245.316L379.989,243.646Q376.637,241.438,373.394,239.204L372.259,240.85ZM340.682,243.893L348.564,242.713L348.268,240.735L340.386,241.915L340.682,243.893ZM197.342,243.25Q201.312,243.968,205.251,244.524L205.53,242.544Q201.63,241.993,197.698,241.282L197.342,243.25ZM324.82,245.853L332.732,244.943L332.503,242.956L324.592,243.866L324.82,245.853ZM213.198,245.505L221.128,246.328L221.335,244.339L213.405,243.516L213.198,245.505ZM308.898,247.289L316.854,246.636L316.691,244.643L308.734,245.295L308.898,247.289ZM229.101,247.029L237.052,247.603L237.196,245.609L229.245,245.034L229.101,247.029ZM292.956,248.217L300.92,247.816L300.819,245.818L292.856,246.219L292.956,248.217ZM245.042,248.057L253.007,248.387L253.09,246.389L245.125,246.059L245.042,248.057ZM276.986,248.651L284.952,248.496L284.913,246.496L276.947,246.651L276.986,248.651ZM261.008,248.597L268.981,248.685L269.003,246.685L261.03,246.597L261.008,248.597ZM385.606,249.647Q388.955,251.759,392.405,253.847L393.44,252.136Q390.006,250.058,386.673,247.955L385.606,249.647ZM399.277,257.922Q402.7,259.912,406.218,261.878L407.194,260.133Q403.691,258.175,400.282,256.193L399.277,257.922ZM413.228,265.723L420.276,269.446L421.21,267.678L414.162,263.955L413.228,265.723ZM427.407,273.079L434.564,276.596L435.446,274.801L428.289,271.284L427.407,273.079ZM441.793,280.027L449.042,283.351L449.876,281.533L442.627,278.209L441.793,280.027ZM456.355,286.592L463.681,289.732L464.469,287.894L457.143,284.754L456.355,286.592ZM471.063,292.793L478.458,295.76L479.203,293.903L471.807,290.937L471.063,292.793ZM485.921,298.657L493.389,301.461L494.092,299.589L486.625,296.784L485.921,298.657ZM500.891,304.187L508.421,306.832L509.084,304.945L501.554,302.3L500.891,304.187ZM515.994,309.403L523.565,311.884L524.188,309.984L516.617,307.502L515.994,309.403ZM531.185,314.292L538.826,316.616L539.408,314.702L531.767,312.379L531.185,314.292ZM546.503,318.855L554.157,320.986L554.694,319.059L547.039,316.928L546.503,318.855ZM561.885,323.017Q564.413,323.657,565.773,323.974L566.227,322.026Q564.885,321.714,562.376,321.078L561.885,323.017Z" fill-rule="evenodd" fill="#4B164C" fill-opacity="1"/></g></svg>